<?xml version="1.0" encoding="utf-8"?>
<!-- Generator: Adobe Illustrator 23.1.1, SVG Export Plug-In . SVG Version: 6.00 Build 0)  -->
<svg version="1.1" id="Layer_1" xmlns="http://www.w3.org/2000/svg" xmlns:xlink="http://www.w3.org/1999/xlink" x="0px" y="0px"
	 viewBox="0 0 141.73 44.79" style="enable-background:new 0 0 141.73 44.79;" xml:space="preserve">
<style type="text/css">
	.st0{fill:#FFFFFF;}
</style>
<g>
	<path class="st0" d="M52.51,26.04c0.08-0.21,0.04-0.45,0.04-0.68c0-3.44,0-6.88,0-10.32c0-0.3-0.01-0.6,0.08-0.9
		c0.19-0.61,0.63-1.02,1.27-1.02c2.23-0.02,4.46-0.02,6.69,0c0.74,0.01,1.28,0.59,1.33,1.34c0.01,0.19,0.01,0.39,0.01,0.58
		c0,3.76,0,7.53,0,11.29c0,0.19,0,0.39-0.01,0.58c-0.01,0.24-0.14,0.35-0.37,0.36c-0.17,0-0.35,0.01-0.52,0.01
		c-2.36,0-4.72,0-7.08,0c-0.23,0-0.47,0-0.78,0c0.27,0.72,0.66,1.29,1.01,1.86c0.16,0.26,0.46,0.19,0.72,0.19c2.03,0,4.07,0,6.1,0
		c0.92,0,0.93,0,0.93,0.92c0,3.79,0,7.57,0,11.36c0,0.22,0.01,0.43-0.02,0.65c-0.07,0.64-0.53,1.21-1.16,1.21
		c-2.18,0.01-4.37,0.22-6.54-0.11c-1.87-0.28-3.23-1.33-4.14-3c-1.71-3.13-3.46-6.24-5.2-9.36c-0.11-0.2-0.25-0.39-0.47-0.57
		c0,0.23,0,0.46,0,0.68c0,3.46,0,6.92,0,10.39c0,0.24,0.01,0.48-0.01,0.71c-0.07,0.75-0.55,1.23-1.3,1.28
		c-0.52,0.03-1.04,0.01-1.56,0.01c-1.62,0-3.25,0.01-4.87,0c-1.04-0.01-1.62-0.56-1.62-1.6c-0.01-3.98-0.01-7.96,0-11.94
		c0-0.6,0.04-0.63,0.69-0.64c2.42,0,4.85,0,7.27,0c0.25,0,0.52,0.06,0.82-0.12c-0.24-0.64-0.62-1.21-0.98-1.79
		c-0.14-0.23-0.44-0.14-0.67-0.14c-2.08,0-4.15,0-6.23,0c-0.91,0-0.91,0-0.91-0.94c0-3.72,0-7.44,0-11.16
		c0-0.22-0.01-0.43,0.02-0.65c0.12-0.96,0.63-1.42,1.59-1.42c1.54-0.01,3.07,0.01,4.61,0c2.75-0.02,4.71,1.16,6.01,3.64
		c1.63,3.1,3.39,6.13,5.09,9.19C52.38,25.99,52.41,26.05,52.51,26.04z"/>
	<path class="st0" d="M130.75,12.78c0.03,3.38-0.94,6.09-2.81,8.45c-1.29,1.62-2.93,2.8-4.9,3.51c-0.58,0.21-1.18,0.25-1.79,0.2
		c-0.66-0.06-1-0.43-1.05-1.09c-0.07-0.93,0.29-1.74,0.73-2.52c0.17-0.3,0.38-0.58,0.54-0.89c0.86-1.61,1.17-3.24,0.26-4.95
		c-0.9-1.7-3.12-2.51-4.34-2.32c-2.27,0.35-3.71,1.89-4,3.7c-0.23,1.4,0.2,2.7,0.94,3.89c0.34,0.55,0.67,1.11,0.9,1.72
		c0.17,0.46,0.23,0.92,0.19,1.4c-0.05,0.63-0.4,0.99-1.03,1.05c-0.81,0.08-1.6-0.06-2.34-0.39c-3.13-1.4-5.22-3.76-6.43-6.94
		c-0.54-1.44-0.8-2.93-0.81-4.44c0-2.89,0.83-5.55,2.58-7.88c2.21-2.94,5.15-4.68,8.81-5.18c6.33-0.86,12.53,3.29,14.16,9.68
		C130.64,10.88,130.79,11.99,130.75,12.78z"/>
	<path class="st0" d="M78.62,35.11c0.3,0.12,0.54,0.08,0.78,0.08c3.27,0,6.53,0,9.8,0.01c0.96,0,1.49,0.41,1.65,1.23
		c0.03,0.15,0.03,0.3,0.03,0.45c0,1.64,0.01,3.29,0,4.93c-0.01,1.22-0.52,1.72-1.75,1.72c-7.5,0-15.01,0-22.51,0
		c-1.17,0-1.64-0.32-1.74-1.46c-0.23-2.71,0.26-5.24,1.98-7.45c1.23-1.58,2.45-3.19,3.66-4.79c0.24-0.32,0.51-0.48,0.92-0.48
		c3.68,0.01,7.35,0.01,11.03,0.01c0.11,0,0.21,0.02,0.44,0.03C81.51,31.37,80.01,33.16,78.62,35.11z"/>
	<path class="st0" d="M72.57,27.12c1.41-1.86,2.8-3.7,4.21-5.57c-0.3-0.16-0.54-0.1-0.76-0.1c-2.98,0-5.97,0-8.95,0
		c-0.24,0-0.48,0.01-0.71-0.02c-0.66-0.08-1.05-0.44-1.22-1.08c-0.07-0.27-0.11-0.55-0.11-0.83c0-1.54,0-3.07,0-4.61
		c0-0.19,0.02-0.39,0.06-0.58c0.18-0.82,0.61-1.17,1.45-1.21c0.17-0.01,0.35,0,0.52,0c7.16,0,14.32,0,21.47,0c0.15,0,0.3,0,0.45,0
		c0.94,0.02,1.52,0.46,1.58,1.37c0.14,2.13,0.12,4.25-1.06,6.16c-0.63,1.01-1.41,1.92-2.11,2.87c-0.81,1.1-1.65,2.16-2.46,3.26
		c-0.26,0.36-0.55,0.53-1.02,0.53c-3.55-0.02-7.09-0.01-10.64-0.01C73.07,27.28,72.84,27.34,72.57,27.12z"/>
	<path class="st0" d="M99.7,24.79c3.72-0.01,6.64,1.29,9.15,3.64c2.15,2.01,3.39,4.48,3.66,7.39c0.21,2.25-0.08,4.46-1.24,6.46
		c-0.54,0.93-1.3,1.67-2.23,2.21c-1.13,0.66-2.15,0.13-2.69-0.5c-1.79-2.11-3.56-4.23-5.35-6.34c-2.02-2.37-4.01-4.76-5.97-7.17
		c-0.26-0.32-0.52-0.64-0.74-0.98c-0.64-0.96-0.55-1.93,0.21-2.8c0.76-0.87,1.75-1.33,2.84-1.6C98.19,24.87,99.06,24.72,99.7,24.79z
		"/>
	<path class="st0" d="M123.05,37.03c-0.01-2.19,0.42-4.28,1.65-6.11c2.19-3.28,5.15-5.44,9.14-6c1.87-0.26,3.71-0.2,5.49,0.52
		c0.61,0.25,1.15,0.6,1.61,1.06c0.97,0.96,1.06,2.11,0.24,3.21c-0.56,0.74-1.15,1.46-1.75,2.17c-1.45,1.75-2.9,3.49-4.36,5.23
		c-1.56,1.85-3.14,3.69-4.71,5.53c-0.31,0.36-0.64,0.71-0.93,1.08c-1.18,1.51-2.45,1.23-3.64,0.25c-1.58-1.3-2.27-3.06-2.61-5.01
		C123.07,38.33,123.04,37.68,123.05,37.03z"/>
	<path class="st0" d="M9.31,27.17c0.21-0.58,0.61-1.07,0.93-1.59c1.67-2.7,3.36-5.39,5.04-8.09c1.48-2.37,3.58-3.81,6.34-4.3
		c0.58-0.1,1.16-0.07,1.75-0.08c0.86-0.01,1.73-0.01,2.59,0c1.01,0.01,1.61,0.49,1.8,1.5c0.35,1.87,0.69,3.74,1.02,5.61
		c0.37,2.1,0.73,4.21,1.1,6.32c0.13,0.73,0.11,0.75-0.66,0.75c-4.93,0-9.86,0-14.79,0c-1.58,0-3.16,0-4.73,0
		C9.57,27.28,9.44,27.32,9.31,27.17z"/>
	<path class="st0" d="M18.83,29.47c-0.42,0.68-0.83,1.36-1.25,2.03c-2.19,3.5-4.38,7-6.57,10.5c-0.64,1.03-1.5,1.58-2.78,1.54
		c-2.18-0.07-4.37-0.02-6.55-0.02c-0.15,0-0.3,0-0.45,0c-1.04-0.05-1.54-0.9-1.04-1.82c0.33-0.61,0.71-1.19,1.08-1.77
		c2.1-3.35,4.2-6.71,6.29-10.07c0.22-0.35,0.45-0.53,0.88-0.53c3.31,0.01,6.62,0.01,9.93,0.01C18.51,29.35,18.66,29.32,18.83,29.47z
		"/>
	<path class="st0" d="M25.25,29.34c1.49,0,2.98,0,4.48,0c0.62,0,0.67,0.04,0.77,0.63c0.61,3.47,1.22,6.93,1.83,10.4
		c0.1,0.59,0.28,1.18,0.26,1.79c-0.03,0.84-0.48,1.35-1.32,1.36c-2.46,0.02-4.93,0.01-7.39,0c-0.77,0-1.28-0.45-1.48-1.29
		c-0.19-0.8-0.32-1.61-0.46-2.42c-0.54-3.04-1.09-6.08-1.61-9.12c-0.26-1.49-0.48-1.33,1.12-1.34
		C22.7,29.34,23.97,29.34,25.25,29.34z"/>
</g>
</svg>
